# xmcd
# 
# Track frame offsets:
#     150
#     15602
#     37838
#     55748
#     81275
# 
# Disc length: 1290
# 
# Revision: 0
# Processed by: cddbd v1.5.2PL0 Copyright (c) Steve Scherf et al.
# Submitted via: BonkEnc v1.0.8
# 
DISCID=2f050805
DTITLE=Blind Date - New God (EP)
DYEAR=1995
DGENRE=Rock
TTITLE0=New God
TTITLE1=Mom's Toy
TTITLE2=A New Way
TTITLE3=Where is all the water gone
TTITLE4=Breakout
EXTD=
EXTT0=
EXTT1=
EXTT2=
EXTT3=
EXTT4=
PLAYORDER=
